<mxfile host="app.diagrams.net" modified="2023-05-03T14:48:52.688Z" agent="Mozilla/5.0 (Windows NT 10.0; Win64; x64) AppleWebKit/537.36 (KHTML, like Gecko) Chrome/112.0.0.0 Safari/537.36 Edg/112.0.1722.64" etag="f49v7poiUzTEFs3B9-dB" version="21.2.2" type="device">
  <diagram name="Page-1" id="f1b7ffb7-ca1e-a977-7cf5-a751b3c06c05">
    <mxGraphModel dx="880" dy="476" grid="1" gridSize="10" guides="1" tooltips="1" connect="1" arrows="1" fold="1" page="1" pageScale="1" pageWidth="826" pageHeight="1169" background="none" math="0" shadow="0">
      <root>
        <mxCell id="0" />
        <mxCell id="1" parent="0" />
        <mxCell id="13" value="" style="verticalLabelPosition=bottom;verticalAlign=top;strokeWidth=1;shape=mxgraph.mockup.graphics.iconGrid;strokeColor=#CCCCCC;gridSize=1,1;" parent="1" vertex="1">
          <mxGeometry x="20" y="172.5" width="780" height="123" as="geometry" />
        </mxCell>
        <mxCell id="2" value="Afghanistan" style="text;spacingTop=-5;fontSize=18;fontStyle=0" parent="1" vertex="1">
          <mxGeometry x="340" y="100" width="232" height="20" as="geometry" />
        </mxCell>
        <mxCell id="3" value="" style="line;strokeWidth=1" parent="1" vertex="1">
          <mxGeometry x="20" y="60" width="780" height="10" as="geometry" />
        </mxCell>
        <mxCell id="4" value="" style="line;strokeWidth=1" parent="1" vertex="1">
          <mxGeometry x="20" y="90" width="780" height="10" as="geometry" />
        </mxCell>
        <mxCell id="5" value="Kabul" style="text;spacingTop=-5;" parent="1" vertex="1">
          <mxGeometry x="265" y="70" width="40" height="20" as="geometry" />
        </mxCell>
        <mxCell id="6" value="Mazar" style="text;spacingTop=-5;" parent="1" vertex="1">
          <mxGeometry x="330" y="70" width="50" height="20" as="geometry" />
        </mxCell>
        <mxCell id="8" value="Article 1" style="text;spacingTop=-5;" parent="1" vertex="1">
          <mxGeometry x="25" y="176" width="30" height="21" as="geometry" />
        </mxCell>
        <mxCell id="9" value="Lorem ipsum dolor sit amet, consectetur adipisicing elit, sed do eiusmod tempor incididunt ut labore et dolore magna aliqua. Ut enim ad minim veniam, quis nostrud exercitation ullamco laboris nisi ut aliquip ex ea commodo consequat. Duis aute irure dolor in reprehenderit in voluptate velit esse cillum dolore eu fugiat nulla pariatur. Excepteur sint occaecat cupidatat non proident, sunt in culpa qui officia deserunt mollit anim id est laborum.&#xa;" style="text;spacingTop=-5;whiteSpace=wrap;align=left" parent="1" vertex="1">
          <mxGeometry x="20" y="202" width="780" height="60" as="geometry" />
        </mxCell>
        <mxCell id="20" value="" style="verticalLabelPosition=bottom;verticalAlign=top;strokeWidth=1;shape=mxgraph.mockup.graphics.iconGrid;strokeColor=#CCCCCC;gridSize=1,1;" parent="1" vertex="1">
          <mxGeometry x="380" y="122" width="40" height="40" as="geometry" />
        </mxCell>
        <mxCell id="21" value="Blog &#xa;Logo" style="text;spacingTop=-5;align=center" parent="1" vertex="1">
          <mxGeometry x="370" y="127" width="60" height="60" as="geometry" />
        </mxCell>
        <mxCell id="22" value="Jalalabad" style="text;spacingTop=-5;" parent="1" vertex="1">
          <mxGeometry x="400" y="70" width="50" height="20" as="geometry" />
        </mxCell>
        <mxCell id="23" value="Bamyan" style="text;spacingTop=-5;" parent="1" vertex="1">
          <mxGeometry x="490" y="70" width="50" height="20" as="geometry" />
        </mxCell>
        <mxCell id="24" value="Contact" style="text;spacingTop=-5;" parent="1" vertex="1">
          <mxGeometry x="560" y="70" width="50" height="20" as="geometry" />
        </mxCell>
        <mxCell id="G8DtQx63B4bEsL6Plj9S-62" value="" style="verticalLabelPosition=bottom;shadow=0;dashed=0;align=center;html=1;verticalAlign=top;strokeWidth=1;shape=mxgraph.mockup.containers.videoPlayer;strokeColor=#666666;strokeColor2=#008cff;strokeColor3=#c4c4c4;textColor=#666666;fillColor2=#008cff;barHeight=30;barPos=20;" vertex="1" parent="1">
          <mxGeometry x="30" y="300" width="320" height="150" as="geometry" />
        </mxCell>
        <mxCell id="G8DtQx63B4bEsL6Plj9S-63" value="" style="html=1;verticalLabelPosition=bottom;align=center;labelBackgroundColor=#ffffff;verticalAlign=top;strokeWidth=2;strokeColor=#0080F0;shadow=0;dashed=0;shape=mxgraph.ios7.icons.video_conversation;fontSize=13;fontColor=#0066CC;" vertex="1" parent="1">
          <mxGeometry x="140" y="340" width="90" height="50" as="geometry" />
        </mxCell>
        <mxCell id="G8DtQx63B4bEsL6Plj9S-64" value="" style="verticalLabelPosition=bottom;verticalAlign=top;strokeWidth=1;shape=mxgraph.mockup.graphics.iconGrid;strokeColor=#CCCCCC;gridSize=1,1;" vertex="1" parent="1">
          <mxGeometry x="30" y="497" width="130" height="122" as="geometry" />
        </mxCell>
        <mxCell id="G8DtQx63B4bEsL6Plj9S-65" value="Kabul" style="text;spacingTop=-5;" vertex="1" parent="1">
          <mxGeometry x="35" y="500" width="30" height="20" as="geometry" />
        </mxCell>
        <mxCell id="G8DtQx63B4bEsL6Plj9S-66" value="Shar-e-Now      &#xa;Taimani        &#xa;Wazer Akbar khan" style="text;spacingTop=-5;whiteSpace=wrap;align=left" vertex="1" parent="1">
          <mxGeometry x="40" y="557" width="110" height="63" as="geometry" />
        </mxCell>
        <mxCell id="G8DtQx63B4bEsL6Plj9S-67" value="Article&#xa;Picture" style="text;spacingTop=-5;align=center;verticalAlign=middle;fontSize=10;fontColor=#929090;" vertex="1" parent="1">
          <mxGeometry x="60" y="517" width="50" height="40" as="geometry" />
        </mxCell>
        <mxCell id="G8DtQx63B4bEsL6Plj9S-68" value="" style="verticalLabelPosition=bottom;verticalAlign=top;strokeWidth=1;shape=mxgraph.mockup.graphics.iconGrid;strokeColor=#CCCCCC;gridSize=1,1;" vertex="1" parent="1">
          <mxGeometry x="183" y="496" width="197" height="122" as="geometry" />
        </mxCell>
        <mxCell id="G8DtQx63B4bEsL6Plj9S-69" value="Mazar" style="text;spacingTop=-5;" vertex="1" parent="1">
          <mxGeometry x="188" y="499" width="30" height="20" as="geometry" />
        </mxCell>
        <mxCell id="G8DtQx63B4bEsL6Plj9S-70" value="Shar-e-Now      &#xa;Taimani        &#xa;Wazer Akbar khan" style="text;spacingTop=-5;whiteSpace=wrap;align=left" vertex="1" parent="1">
          <mxGeometry x="193" y="556" width="110" height="63" as="geometry" />
        </mxCell>
        <mxCell id="G8DtQx63B4bEsL6Plj9S-71" value="Article&#xa;Picture" style="text;spacingTop=-5;align=center;verticalAlign=middle;fontSize=10;fontColor=#929090;" vertex="1" parent="1">
          <mxGeometry x="213" y="516" width="50" height="40" as="geometry" />
        </mxCell>
        <mxCell id="G8DtQx63B4bEsL6Plj9S-72" value="" style="verticalLabelPosition=bottom;verticalAlign=top;strokeWidth=1;shape=mxgraph.mockup.graphics.iconGrid;strokeColor=#CCCCCC;gridSize=1,1;" vertex="1" parent="1">
          <mxGeometry x="390" y="495" width="190" height="122" as="geometry" />
        </mxCell>
        <mxCell id="G8DtQx63B4bEsL6Plj9S-73" value="jalalabad" style="text;spacingTop=-5;" vertex="1" parent="1">
          <mxGeometry x="396" y="498" width="31" height="20" as="geometry" />
        </mxCell>
        <mxCell id="G8DtQx63B4bEsL6Plj9S-74" value="Shar-e-Now      &#xa;Taimani        &#xa;Wazer Akbar khan" style="text;spacingTop=-5;whiteSpace=wrap;align=left" vertex="1" parent="1">
          <mxGeometry x="401" y="555" width="111" height="63" as="geometry" />
        </mxCell>
        <mxCell id="G8DtQx63B4bEsL6Plj9S-75" value="Article&#xa;Picture" style="text;spacingTop=-5;align=center;verticalAlign=middle;fontSize=10;fontColor=#929090;" vertex="1" parent="1">
          <mxGeometry x="421" y="515" width="51" height="40" as="geometry" />
        </mxCell>
        <mxCell id="G8DtQx63B4bEsL6Plj9S-80" value="" style="verticalLabelPosition=bottom;verticalAlign=top;strokeWidth=1;shape=mxgraph.mockup.graphics.iconGrid;strokeColor=#CCCCCC;gridSize=1,1;" vertex="1" parent="1">
          <mxGeometry x="618" y="494" width="194" height="122" as="geometry" />
        </mxCell>
        <mxCell id="G8DtQx63B4bEsL6Plj9S-81" value="bamyan" style="text;spacingTop=-5;" vertex="1" parent="1">
          <mxGeometry x="623" y="497" width="30" height="20" as="geometry" />
        </mxCell>
        <mxCell id="G8DtQx63B4bEsL6Plj9S-82" value="Shar-e-Now      &#xa;Taimani        &#xa;Wazer Akbar khan" style="text;spacingTop=-5;whiteSpace=wrap;align=left" vertex="1" parent="1">
          <mxGeometry x="628" y="554" width="110" height="63" as="geometry" />
        </mxCell>
        <mxCell id="G8DtQx63B4bEsL6Plj9S-83" value="Article&#xa;Picture" style="text;spacingTop=-5;align=center;verticalAlign=middle;fontSize=10;fontColor=#929090;" vertex="1" parent="1">
          <mxGeometry x="648" y="514" width="50" height="40" as="geometry" />
        </mxCell>
        <mxCell id="G8DtQx63B4bEsL6Plj9S-84" value="" style="verticalLabelPosition=bottom;verticalAlign=top;strokeWidth=1;shape=mxgraph.mockup.graphics.iconGrid;strokeColor=#CCCCCC;gridSize=1,1;" vertex="1" parent="1">
          <mxGeometry x="30" y="650" width="780" height="123" as="geometry" />
        </mxCell>
        <mxCell id="G8DtQx63B4bEsL6Plj9S-85" value="Article 1" style="text;spacingTop=-5;" vertex="1" parent="1">
          <mxGeometry x="35" y="653" width="30" height="20" as="geometry" />
        </mxCell>
        <mxCell id="G8DtQx63B4bEsL6Plj9S-86" value="Lorem ipsum dolor sit amet, consectetur adipisicing elit, sed do eiusmod tempor incididunt ut labore et dolore magna aliqua. Ut enim ad minim veniam, quis nostrud exercitation ullamco laboris nisi ut aliquip ex ea commodo consequat. Duis aute irure dolor in reprehenderit in voluptate velit esse cillum dolore eu fugiat nulla pariatur. Excepteur sint occaecat cupidatat non proident, sunt in culpa qui officia deserunt mollit anim id est laborum.&#xa;" style="text;spacingTop=-5;whiteSpace=wrap;align=left" vertex="1" parent="1">
          <mxGeometry x="30" y="693" width="780" height="60" as="geometry" />
        </mxCell>
        <mxCell id="G8DtQx63B4bEsL6Plj9S-87" value="" style="verticalLabelPosition=bottom;verticalAlign=top;strokeWidth=1;shape=mxgraph.mockup.graphics.iconGrid;strokeColor=#CCCCCC;gridSize=1,1;" vertex="1" parent="1">
          <mxGeometry x="30" y="800" width="780" height="123" as="geometry" />
        </mxCell>
        <mxCell id="G8DtQx63B4bEsL6Plj9S-88" value="Article 1" style="text;spacingTop=-5;" vertex="1" parent="1">
          <mxGeometry x="35" y="803" width="30" height="20" as="geometry" />
        </mxCell>
        <mxCell id="G8DtQx63B4bEsL6Plj9S-89" value="Lorem ipsum dolor sit amet, consectetur adipisicing elit, sed do eiusmod tempor incididunt ut labore et dolore magna aliqua. Ut enim ad minim veniam, quis nostrud exercitation ullamco laboris nisi ut aliquip ex ea commodo consequat. Duis aute irure dolor in reprehenderit in voluptate velit esse cillum dolore eu fugiat nulla pariatur. Excepteur sint occaecat cupidatat non proident, sunt in culpa qui officia deserunt mollit anim id est laborum.&#xa;" style="text;spacingTop=-5;whiteSpace=wrap;align=left" vertex="1" parent="1">
          <mxGeometry x="30" y="843" width="780" height="60" as="geometry" />
        </mxCell>
        <mxCell id="G8DtQx63B4bEsL6Plj9S-100" value="" style="verticalLabelPosition=bottom;verticalAlign=top;strokeWidth=1;shape=mxgraph.mockup.graphics.iconGrid;strokeColor=#CCCCCC;gridSize=1,1;" vertex="1" parent="1">
          <mxGeometry x="220" y="940" width="360" height="200" as="geometry" />
        </mxCell>
        <mxCell id="G8DtQx63B4bEsL6Plj9S-101" value="Contact Me" style="text;spacingTop=-5;align=center;verticalAlign=top;fontSize=15;fontColor=#0D0D0D;" vertex="1" parent="1">
          <mxGeometry x="220" y="940" width="360" height="200" as="geometry" />
        </mxCell>
        <mxCell id="G8DtQx63B4bEsL6Plj9S-102" value="&lt;font color=&quot;#9c9c9c&quot;&gt;First name&lt;/font&gt;" style="rounded=0;whiteSpace=wrap;html=1;align=left;" vertex="1" parent="1">
          <mxGeometry x="330" y="960" width="150" height="18" as="geometry" />
        </mxCell>
        <mxCell id="G8DtQx63B4bEsL6Plj9S-103" value="&lt;font color=&quot;#878787&quot;&gt;last name&lt;/font&gt;" style="rounded=0;whiteSpace=wrap;html=1;align=left;" vertex="1" parent="1">
          <mxGeometry x="330" y="982" width="150" height="18" as="geometry" />
        </mxCell>
        <mxCell id="G8DtQx63B4bEsL6Plj9S-104" value="&lt;font color=&quot;#9e9e9e&quot;&gt;Email&lt;/font&gt;" style="rounded=0;whiteSpace=wrap;html=1;align=left;" vertex="1" parent="1">
          <mxGeometry x="330" y="1005" width="150" height="18" as="geometry" />
        </mxCell>
        <mxCell id="G8DtQx63B4bEsL6Plj9S-105" value="&lt;font color=&quot;#878787&quot;&gt;Phone Number&lt;/font&gt;" style="rounded=0;whiteSpace=wrap;html=1;align=left;" vertex="1" parent="1">
          <mxGeometry x="330" y="1029" width="150" height="18" as="geometry" />
        </mxCell>
        <mxCell id="G8DtQx63B4bEsL6Plj9S-106" value="&lt;div style=&quot;&quot;&gt;&lt;span style=&quot;color: rgb(135, 135, 135); background-color: initial;&quot;&gt;Message&lt;/span&gt;&lt;/div&gt;" style="rounded=0;whiteSpace=wrap;html=1;align=left;" vertex="1" parent="1">
          <mxGeometry x="330" y="1050" width="150" height="37" as="geometry" />
        </mxCell>
        <mxCell id="G8DtQx63B4bEsL6Plj9S-107" value="&lt;div style=&quot;&quot;&gt;&lt;span style=&quot;color: rgb(135, 135, 135); background-color: initial;&quot;&gt;Send&lt;/span&gt;&lt;/div&gt;" style="rounded=0;whiteSpace=wrap;html=1;align=center;" vertex="1" parent="1">
          <mxGeometry x="330" y="1090" width="150" height="17" as="geometry" />
        </mxCell>
        <mxCell id="G8DtQx63B4bEsL6Plj9S-108" value="" style="rounded=1;whiteSpace=wrap;html=1;glass=0;shadow=0;fillColor=none;" vertex="1" parent="1">
          <mxGeometry x="618" y="494" width="182" height="110" as="geometry" />
        </mxCell>
        <mxCell id="G8DtQx63B4bEsL6Plj9S-109" value="" style="rounded=1;whiteSpace=wrap;html=1;glass=0;shadow=0;fillColor=none;" vertex="1" parent="1">
          <mxGeometry x="390" y="498" width="182" height="110" as="geometry" />
        </mxCell>
        <mxCell id="G8DtQx63B4bEsL6Plj9S-110" value="" style="rounded=1;whiteSpace=wrap;html=1;glass=0;shadow=0;fillColor=none;" vertex="1" parent="1">
          <mxGeometry x="183" y="497" width="182" height="110" as="geometry" />
        </mxCell>
        <mxCell id="G8DtQx63B4bEsL6Plj9S-111" value="" style="rounded=1;whiteSpace=wrap;html=1;glass=0;shadow=0;fillColor=none;" vertex="1" parent="1">
          <mxGeometry x="35" y="496" width="125" height="110" as="geometry" />
        </mxCell>
        <mxCell id="G8DtQx63B4bEsL6Plj9S-112" value="" style="verticalLabelPosition=bottom;verticalAlign=top;strokeWidth=1;shape=mxgraph.mockup.graphics.iconGrid;strokeColor=#CCCCCC;gridSize=1,1;" vertex="1" parent="1">
          <mxGeometry x="29" y="460" width="377" height="30" as="geometry" />
        </mxCell>
        <mxCell id="G8DtQx63B4bEsL6Plj9S-113" value="Article 1" style="text;spacingTop=-5;" vertex="1" parent="1">
          <mxGeometry x="30" y="465" width="90" height="20" as="geometry" />
        </mxCell>
      </root>
    </mxGraphModel>
  </diagram>
</mxfile>
